# Blender v2.90.1 OBJ File: ''
# www.blender.org
mtllib Sphere.mtl
o Icosphere
v 0.000000 -1.000000 0.000000
v 0.723607 -0.447220 0.525725
v -0.276388 -0.447220 0.850649
v -0.894426 -0.447216 0.000000
v -0.276388 -0.447220 -0.850649
v 0.723607 -0.447220 -0.525725
v 0.276388 0.447220 0.850649
v -0.723607 0.447220 0.525725
v -0.723607 0.447220 -0.525725
v 0.276388 0.447220 -0.850649
v 0.894426 0.447216 0.000000
v 0.000000 1.000000 0.000000
v -0.162456 -0.850654 0.499995
v 0.425323 -0.850654 0.309011
v 0.262869 -0.525738 0.809012
v 0.850648 -0.525736 0.000000
v 0.425323 -0.850654 -0.309011
v -0.525730 -0.850652 0.000000
v -0.688189 -0.525736 0.499997
v -0.162456 -0.850654 -0.499995
v -0.688189 -0.525736 -0.499997
v 0.262869 -0.525738 -0.809012
v 0.951058 0.000000 0.309013
v 0.951058 0.000000 -0.309013
v 0.000000 0.000000 1.000000
v 0.587786 0.000000 0.809017
v -0.951058 0.000000 0.309013
v -0.587786 0.000000 0.809017
v -0.587786 0.000000 -0.809017
v -0.951058 0.000000 -0.309013
v 0.587786 0.000000 -0.809017
v 0.000000 0.000000 -1.000000
v 0.688189 0.525736 0.499997
v -0.262869 0.525738 0.809012
v -0.850648 0.525736 0.000000
v -0.262869 0.525738 -0.809012
v 0.688189 0.525736 -0.499997
v 0.162456 0.850654 0.499995
v 0.525730 0.850652 0.000000
v -0.425323 0.850654 0.309011
v -0.425323 0.850654 -0.309011
v 0.162456 0.850654 -0.499995
vt 0.818181 0.000000
vt 0.772726 0.078731
vt 0.863635 0.078731
vt 0.727272 0.157461
vt 0.681818 0.078731
vt 0.636363 0.157461
vt 0.090909 0.000000
vt 0.045454 0.078731
vt 0.136363 0.078731
vt 0.272727 0.000000
vt 0.227273 0.078731
vt 0.318182 0.078731
vt 0.454545 0.000000
vt 0.409090 0.078731
vt 0.500000 0.078731
vt 0.909090 0.157461
vt 0.818181 0.157461
vt 0.863635 0.236191
vt 0.181818 0.157461
vt 0.090909 0.157461
vt 0.136363 0.236191
vt 0.363636 0.157461
vt 0.272727 0.157461
vt 0.318182 0.236191
vt 0.545454 0.157461
vt 0.454545 0.157461
vt 0.500000 0.236191
vt 0.954545 0.236191
vt 0.227273 0.236191
vt 0.409090 0.236191
vt 0.272727 0.314921
vt 0.181818 0.314921
vt 0.227273 0.393651
vt 0.363636 0.314921
vt 0.318182 0.393651
vt 0.454545 0.314921
vt 0.090909 0.314921
vt 0.045454 0.236191
vt 0.000000 0.157461
vt 0.590909 0.078731
vt 0.636363 0.000000
vt 0.681818 0.236191
vt 0.772726 0.236191
vt 0.590909 0.236191
vt 0.818181 0.314921
vt 0.727272 0.314921
vt 0.772726 0.393651
vt 1.000000 0.314921
vt 0.909091 0.314921
vt 0.954545 0.393651
vt 0.409090 0.393651
vt 0.636363 0.314921
vt 0.545454 0.314921
vt 0.590909 0.393651
vt 0.500000 0.393651
vt 0.545454 0.472382
vt 0.363636 0.472382
vt 0.136363 0.393651
vt 0.181818 0.472382
vt 0.863635 0.393651
vt 0.909090 0.472382
vt 0.681818 0.393651
vt 0.727272 0.472382
vn 0.1024 -0.9435 0.3151
vn 0.7002 -0.6617 0.2680
vn -0.2680 -0.9435 0.1947
vn -0.2680 -0.9435 -0.1947
vn 0.1024 -0.9435 -0.3151
vn 0.0247 -0.3304 0.9435
vn -0.8897 -0.3304 0.3151
vn -0.5746 -0.3304 -0.7488
vn 0.5346 -0.3304 -0.7779
vn -0.3066 -0.1256 0.9435
vn -0.9921 -0.1256 0.0000
vn -0.3066 -0.1256 -0.9435
vn -0.7002 0.6617 -0.2680
vn -0.4713 0.6617 -0.5831
vn -0.0247 0.3304 -0.9435
vn -0.3035 0.1876 -0.9342
vn -0.5346 0.3304 -0.7779
vn -0.9050 0.3304 -0.2680
vn -0.9822 0.1876 0.0000
vn -0.9050 0.3304 0.2680
vn 0.3066 0.1256 -0.9435
vn 0.3035 -0.1876 -0.9342
vn 0.0247 -0.3304 -0.9435
vn -0.8026 0.1256 -0.5831
vn -0.7947 -0.1876 -0.5773
vn -0.8897 -0.3304 -0.3151
vn -0.8026 0.1256 0.5831
vn -0.7947 -0.1876 0.5773
vn -0.5746 -0.3304 0.7488
vn 0.4713 -0.6617 -0.5831
vn 0.1876 -0.7947 -0.5773
vn -0.0385 -0.6617 -0.7488
vn -0.4089 -0.6617 -0.6284
vn -0.4911 -0.7947 -0.3568
vn -0.7240 -0.6617 -0.1947
vn -0.7240 -0.6617 0.1947
vn -0.4911 -0.7947 0.3568
vn -0.4089 -0.6617 0.6284
vn 0.7002 -0.6617 -0.2680
vn 0.6071 -0.7947 0.0000
vn 0.3313 -0.9435 0.0000
vn -0.0385 -0.6617 0.7488
vn 0.1876 -0.7947 0.5773
vn 0.4713 -0.6617 0.5831
vn 0.7236 -0.4472 0.5257
vn 0.8506 -0.5257 0.0000
vn 0.9510 0.0000 0.3090
vn 0.5878 0.0000 0.8090
vn 0.7236 -0.4472 -0.5257
vn 0.5878 0.0000 -0.8090
vn 0.9510 0.0000 -0.3090
vn 0.2764 0.4472 0.8506
vn 0.6882 0.5257 0.5000
vn 0.1625 0.8506 0.5000
vn -0.7236 0.4472 0.5257
vn -0.2629 0.5257 0.8090
vn -0.4253 0.8506 0.3090
vn 0.2764 0.4472 -0.8506
vn -0.2629 0.5257 -0.8090
vn 0.1625 0.8506 -0.5000
vn 0.8944 0.4472 0.0000
vn 0.6882 0.5257 -0.5000
vn 0.5257 0.8506 0.0000
vn 0.0000 1.0000 0.0000
vn -0.4253 0.8506 -0.3090
vn -0.8506 0.5257 0.0000
vn -0.5878 0.0000 0.8090
vn 0.0000 0.0000 1.0000
vn 0.2629 -0.5257 0.8090
usemtl None
s off
f 1/1/1 14/2/1 13/3/1
f 2/4/2 14/5/2 16/6/2
f 1/7/3 13/8/3 18/9/3
f 1/10/4 18/11/4 20/12/4
f 1/13/5 20/14/5 17/15/5
f 3/16/6 15/17/6 25/18/6
f 4/19/7 19/20/7 27/21/7
f 5/22/8 21/23/8 29/24/8
f 6/25/9 22/26/9 31/27/9
f 3/16/10 25/18/10 28/28/10
f 4/19/11 27/21/11 30/29/11
f 5/22/12 29/24/12 32/30/12
f 9/31/13 35/32/13 41/33/13
f 36/34/14 9/31/14 41/35/14
f 32/30/15 36/34/15 10/36/15
f 32/30/16 29/24/16 36/34/16
f 29/24/17 9/31/17 36/34/17
f 30/29/18 35/32/18 9/31/18
f 30/29/19 27/21/19 35/32/19
f 27/21/20 8/37/20 35/32/20
f 31/27/21 32/30/21 10/36/21
f 31/27/22 22/26/22 32/30/22
f 22/26/23 5/22/23 32/30/23
f 29/24/24 30/29/24 9/31/24
f 29/24/25 21/23/25 30/29/25
f 21/23/26 4/19/26 30/29/26
f 27/21/27 28/38/27 8/37/27
f 27/21/28 19/20/28 28/38/28
f 19/20/29 3/39/29 28/38/29
f 17/15/30 22/26/30 6/25/30
f 17/15/31 20/14/31 22/26/31
f 20/14/32 5/22/32 22/26/32
f 20/12/33 21/23/33 5/22/33
f 20/12/34 18/11/34 21/23/34
f 18/11/35 4/19/35 21/23/35
f 18/9/36 19/20/36 4/19/36
f 18/9/37 13/8/37 19/20/37
f 13/8/38 3/39/38 19/20/38
f 16/6/39 17/40/39 6/25/39
f 16/6/40 14/5/40 17/40/40
f 14/5/41 1/41/41 17/40/41
f 13/3/42 15/17/42 3/16/42
f 13/3/43 14/2/43 15/17/43
f 14/2/44 2/4/44 15/17/44
s 1
f 2/4/45 16/6/46 23/42/47
f 2/4/45 23/42/47 26/43/48
f 6/25/49 31/27/50 24/44/51
f 7/45/52 33/46/53 38/47/54
f 8/48/55 34/49/56 40/50/57
f 10/36/58 36/34/59 42/51/60
f 11/52/61 37/53/62 39/54/63
f 39/54/63 42/55/60 12/56/64
f 39/54/63 37/53/62 42/55/60
f 37/53/62 10/36/58 42/55/60
f 42/51/60 41/35/65 12/57/64
f 42/51/60 36/34/59 41/35/65
f 41/33/65 40/58/57 12/59/64
f 41/33/65 35/32/66 40/58/57
f 35/32/66 8/37/55 40/58/57
f 40/50/57 38/60/54 12/61/64
f 40/50/57 34/49/56 38/60/54
f 34/49/56 7/45/52 38/60/54
f 38/47/54 39/62/63 12/63/64
f 38/47/54 33/46/53 39/62/63
f 33/46/53 11/52/61 39/62/63
f 24/44/51 37/53/62 11/52/61
f 24/44/51 31/27/50 37/53/62
f 31/27/50 10/36/58 37/53/62
f 28/28/67 34/49/56 8/48/55
f 28/28/67 25/18/68 34/49/56
f 25/18/68 7/45/52 34/49/56
f 26/43/48 33/46/53 7/45/52
f 26/43/48 23/42/47 33/46/53
f 23/42/47 11/52/61 33/46/53
f 25/18/68 26/43/48 7/45/52
f 25/18/68 15/17/69 26/43/48
f 15/17/69 2/4/45 26/43/48
f 23/42/47 24/44/51 11/52/61
f 23/42/47 16/6/46 24/44/51
f 16/6/46 6/25/49 24/44/51
